<svg xmlns="http://www.w3.org/2000/svg" width="60" height="35.007" viewBox="0 0 60 35.007">
  <g transform="translate(-2 -26.993)">
    <path d="M61,59H52.736a6.984,6.984,0,0,1-11.472,0H22.736a6.984,6.984,0,0,1-11.472,0H3a1,1,0,0,1-1-1.045,57.168,57.168,0,0,1,1.145-9.218,5.429,5.429,0,0,1,1.147-2.444,13.22,13.22,0,0,1,4.33-2.469c.369-.15.746-.3,1.126-.451a26.529,26.529,0,0,0,4.7-2.2,15.7,15.7,0,0,0,3.339-3.831c1.712-2.384,3.652-5.085,6.7-6.914,4.689-2.812,17.059-5.553,25.01-1.012,3.725,2.124,5.314,5.662,6.718,8.783a28.441,28.441,0,0,0,1.638,3.279c.41.662,2.177,2.029,3.149,3.625a7.575,7.575,0,0,1,1,3.479V58A1,1,0,0,1,61,59ZM47,60a5,5,0,1,0-5-5A5.006,5.006,0,0,0,47,60ZM17,60a5,5,0,1,0-5-5A5.006,5.006,0,0,0,17,60ZM5.522,48H8V46.275a8.318,8.318,0,0,0-2.293,1.432A1.255,1.255,0,0,0,5.522,48ZM48.5,31.148c-7.173-4.1-18.78-1.535-22.989.989-2.694,1.616-4.507,4.14-6.106,6.366a17.117,17.117,0,0,1-3.854,4.329,27.945,27.945,0,0,1-5.067,2.4c-.164.065-.323.13-.486.194V49a1,1,0,0,1-1,1H4.909a55.972,55.972,0,0,0-.847,7H10.3a6.888,6.888,0,0,1-.3-2,7,7,0,1,1,13.7,2H40.3a7,7,0,1,1,13.41,0H60V51H57a1,1,0,0,1-1-1V42.252a32.758,32.758,0,0,1-1.61-3.237c-1.341-2.983-2.728-6.066-5.886-7.867ZM58,44.708V49h2C59.2,45.54,58.549,45.153,58,44.708Z" transform="translate(0)"/>
    <path d="M42.7,42H12a1,1,0,0,1-.81-1.587l.546-.75c1.558-2.167,3.169-4.408,5.506-5.812C19.551,32.469,24.7,31,29.714,31a17.315,17.315,0,0,1,8.5,1.884c2.594,1.482,3.847,4.265,5.061,6.962l.335.738A1,1,0,0,1,42.7,42ZM13.962,40H31.607V33.157c-1.419.21-3.656-.021-6.495.411a27.1,27.1,0,0,0-6.84,2A15.854,15.854,0,0,0,13.962,40Zm23.259-5.38c-1.856-1.06-2.291-1.36-2.964-1.307V40h6.891C40.121,37.742,39.071,35.678,37.221,34.62Z" transform="translate(9.299)"/>
  </g>
</svg>