<svg xmlns="http://www.w3.org/2000/svg" width="60" height="43.548" viewBox="0 0 60 43.548">
  <g transform="translate(0 -68)">
    <g transform="translate(0 68)">
      <g transform="translate(0 0)">
        <path d="M59.046,86.382l-.164-.963h-6.8L52.3,86.7a68.048,68.048,0,0,1,.856,8.393h-3.8V85.419a2.907,2.907,0,0,0-2.9-2.9H44.516a.969.969,0,0,1-.968-.968V79.613a2.907,2.907,0,0,0-2.9-2.9H32.9v-2.9H44.516V68H15.484v5.806H27.1v2.9H20.551a2.888,2.888,0,0,0-2.6,1.6l-.866,1.731a.96.96,0,0,1-.864.535h-4.61a2.907,2.907,0,0,0-2.9,2.9v6.774h-2.9V82.516H0v21.29H5.806V96.065h2.9v7.742a2.907,2.907,0,0,0,2.9,2.9h5.005a.975.975,0,0,1,.684.284l3.7,3.7a2.882,2.882,0,0,0,2.053.851H46.452a2.907,2.907,0,0,0,2.9-2.9V100.9h3.8c-.1,2.258-.3,4.5-.615,6.667l-.43,3.011H58.9l.391-2.737a70.49,70.49,0,0,0,.7-9.923A70.477,70.477,0,0,0,59.046,86.382ZM8.71,94.129H3.871v7.742H1.935V84.452H3.871v7.742H8.71Zm8.71-22.258V69.935H42.581v1.935H30.968V76.71H29.032V71.871Zm-2.9,32.9h-2.9a.969.969,0,0,1-.968-.968V83.484a.969.969,0,0,1,.968-.968h2.9v4.839h3.871a.969.969,0,0,1,.968.968V98a.969.969,0,0,1-.968.968H14.516Zm9.677,4.839H23.059a.977.977,0,0,1-.684-.284l-3.7-3.7a2.882,2.882,0,0,0-2.053-.851h-.166V100.9h1.935a2.907,2.907,0,0,0,2.9-2.9V88.323a2.907,2.907,0,0,0-2.9-2.9H16.452V82.5a2.879,2.879,0,0,0,2.368-1.589l.866-1.731a.963.963,0,0,1,.865-.535h3.643Zm7.742,0H30v-3.871H28.065v3.871H26.129V98.968h1.935v4.839H30V98.968h1.935Zm3.871,0H33.871V98.968h1.935Zm3.871,0H37.742V98.968h1.935Zm7.742-.968a.969.969,0,0,1-.968.968h-.968v-6.774H43.548v6.774H41.613V98.968h1.935V100.9h1.935V98.968h1.935Zm0-11.613H26.129V95.1h21.29ZM33.871,93.161V89.29h5.806v3.871Zm13.548,0H41.613V87.355H31.935v5.806H26.129v-8.71H39.677V82.516H26.129V78.645H40.645a.969.969,0,0,1,.968.968v1.935a2.907,2.907,0,0,0,2.9,2.9h1.935a.969.969,0,0,1,.968.968Zm9.959,14.409-.153,1.075H54.343l.114-.8a70.612,70.612,0,0,0,.669-7.88l.028-1h-5.8V97.032h5.794l-.026-.994a70.836,70.836,0,0,0-.762-8.684h2.881a68.5,68.5,0,0,1,.823,10.566A68.344,68.344,0,0,1,57.378,107.57Z" transform="translate(0 -68)"/>
      </g>
    </g>
    <g transform="translate(14.516 92.194)">
      <rect width="1.935" height="1.935"/>
    </g>
    <g transform="translate(28.065 89.29)">
      <g transform="translate(0 0)">
        <rect width="1.935" height="1.935"/>
      </g>
    </g>
    <g transform="translate(43.548 89.29)">
      <g transform="translate(0 0)">
        <rect width="1.935" height="1.935"/>
      </g>
    </g>
  </g>
</svg>