<svg xmlns="http://www.w3.org/2000/svg" width="57.975" height="59.997" viewBox="0 0 57.975 59.997">
  <g id="_2933839" data-name="2933839" transform="translate(-6.775 -4.75)">
    <path id="Tracciato_3" data-name="Tracciato 3" d="M66.648,61.093l-2.3-5.308a3.038,3.038,0,0,0,.9-3.363l-5.8-16.011a2.157,2.157,0,0,1-.011-1.434l.914-2.649a3.937,3.937,0,0,0-1.721-4.663L40.27,16.88a3.922,3.922,0,0,0-4.2.145L29.013,9.644a5.455,5.455,0,0,0-2.791-1.553L10.779,4.77a.885.885,0,0,0-1.053.68L8.77,9.905a.886.886,0,0,0,.68,1.052l14.982,3.219a.658.658,0,0,1,.33.182l6.784,7.088-.11.11a3.944,3.944,0,0,0-.932,4.068L41.837,58.14a3.062,3.062,0,0,0,4.321,1.7l7.2-3.792.557,1.279a3.059,3.059,0,0,0,3.329,1.8l2.207,5.086a.886.886,0,0,0,.813.534.876.876,0,0,0,.354-.073l5.574-2.415a.885.885,0,0,0,.461-1.165ZM26.043,13.136a2.407,2.407,0,0,0-1.235-.691L10.688,9.411l.585-2.722L25.848,9.823a3.688,3.688,0,0,1,1.886,1.048l7.038,7.354L32.8,20.194ZM56.269,57.318a1.281,1.281,0,0,1-.729-.694L54.6,54.468a.885.885,0,0,0-1.225-.431l-8.044,4.238a1.293,1.293,0,0,1-1.823-.718L32.178,25.04a2.161,2.161,0,0,1,.511-2.228l4.073-4.071a2.152,2.152,0,0,1,2.611-.333L57.729,29.193a2.159,2.159,0,0,1,.944,2.557L57.759,34.4a3.93,3.93,0,0,0,.02,2.616l5.8,16.011a1.287,1.287,0,0,1-.666,1.61c-.008,0-.016,0-.023.008l-.038.021L57.4,57.222a.032.032,0,0,0-.013,0l-.022.012-.088.042a1.279,1.279,0,0,1-1.007.038ZM60.725,62.7l-1.83-4.219,3.9-1.828,1.88,4.336Z" transform="translate(-1.975)" fill="#1a7100"/>
    <path id="Tracciato_4" data-name="Tracciato 4" d="M73.763,39.991l2.683,1.576a.886.886,0,1,0,.9-1.528l-2.683-1.576a.886.886,0,0,0-.9,1.528Z" transform="translate(-33.855 -16.584)" fill="#1a7100"/>
    <path id="Tracciato_5" data-name="Tracciato 5" d="M76.851,65.657a4.108,4.108,0,0,0-1.9-2.233l-1.945-1.069a4.114,4.114,0,0,0-5.866,4.959l5.949,17.071a.886.886,0,0,0,1.249.493l7.169-3.771a.886.886,0,0,0,.423-1.08ZM74.427,82.829l-5.61-16.1a2.343,2.343,0,0,1,2.211-3.112h.012l4.242,11.077L74.593,76.9a.885.885,0,0,0,.582,1.109.871.871,0,0,0,.264.041.885.885,0,0,0,.845-.622l.781-2.5a.884.884,0,0,0-.018-.581l-3.76-9.821.815.448a2.343,2.343,0,0,1,1.08,1.272l4.827,13.646Z" transform="translate(-30.69 -28.188)" fill="#1a7100"/>
  </g>
</svg>
