<svg xmlns="http://www.w3.org/2000/svg" width="60" height="60" viewBox="0 0 60 60">
  <path d="M37.969,15A22.969,22.969,0,1,0,60.937,37.969,22.969,22.969,0,0,0,37.969,15ZM46.6,57.464a9.105,9.105,0,0,0-17.262,0,21.3,21.3,0,0,1-3.167-1.74,10.168,10.168,0,0,0,1.574-5.437A10.284,10.284,0,0,0,17.473,40.013h-.732c-.065-.674-.1-1.355-.1-2.044a21.422,21.422,0,0,1,.192-2.818H59.1a21.339,21.339,0,0,1,.192,2.818c0,.69-.036,1.372-.1,2.046h-.732A10.284,10.284,0,0,0,48.192,50.286a10.172,10.172,0,0,0,1.574,5.438A21.316,21.316,0,0,1,46.6,57.464ZM37.969,16.641A21.362,21.362,0,0,1,58.824,33.51H17.113A21.362,21.362,0,0,1,37.969,16.641Zm-21,25.013h.507A8.641,8.641,0,0,1,26.1,50.286a8.54,8.54,0,0,1-1.26,4.475,21.34,21.34,0,0,1-7.878-13.107Zm13.9,16.42a7.464,7.464,0,0,1,14.208,0,21.275,21.275,0,0,1-14.208,0Zm20.23-3.314a8.541,8.541,0,0,1-1.261-4.475,8.642,8.642,0,0,1,8.632-8.632h.507A21.34,21.34,0,0,1,51.094,54.76Z" transform="translate(-7.969 -7.969)"/>
  <path d="M30,0A30,30,0,1,0,60,30,30,30,0,0,0,30,0Zm0,58.359A28.359,28.359,0,1,1,58.359,30,28.359,28.359,0,0,1,30,58.359Z"/>
  <path d="M59.211,65.375H53.117a3.867,3.867,0,0,0,0,7.734h6.094a3.867,3.867,0,0,0,0-7.734Zm0,6.094H53.117a2.227,2.227,0,0,1,0-4.453h6.094a2.227,2.227,0,0,1,0,4.453Z" transform="translate(-26.164 -34.73)"/>
</svg>